<?xml version="1.0" standalone="no"?>
<!DOCTYPE svg PUBLIC "-//W3C//DTD SVG 20010904//EN"
 "http://www.w3.org/TR/2001/REC-SVG-20010904/DTD/svg10.dtd">
<svg version="1.0" xmlns="http://www.w3.org/2000/svg"
 width="484.000000pt" height="320.000000pt" viewBox="0 0 484.000000 320.000000"
 preserveAspectRatio="xMidYMid meet">

<g transform="translate(0.000000,320.000000) scale(0.100000,-0.100000)"
fill="#000000" stroke="none">
<path d="M10 1600 l0 -1600 2415 0 2415 0 0 1600 0 1600 -2415 0 -2415 0 0
-1600z m2488 1166 c38 -24 183 -119 323 -211 140 -92 340 -224 444 -292 105
-69 336 -221 515 -339 179 -118 362 -238 408 -266 45 -29 82 -55 82 -58 0 -3
-82 -58 -183 -123 -100 -65 -362 -238 -582 -383 -220 -145 -416 -273 -435
-284 -19 -11 -57 -36 -85 -55 -27 -20 -57 -40 -65 -45 -8 -6 -71 -47 -140 -93
-302 -198 -352 -229 -368 -225 -9 3 -152 94 -317 203 -165 109 -325 214 -355
234 -30 19 -57 38 -60 42 -3 3 -10 8 -16 10 -6 2 -98 62 -205 132 -563 372
-856 564 -873 574 -17 9 21 38 290 215 333 220 480 317 669 440 66 42 140 91
165 108 25 17 155 104 290 192 135 88 281 184 324 214 44 30 86 54 93 54 7 0
44 -20 81 -44z"/>
<path d="M2300 2394 c-258 -52 -470 -199 -578 -402 l-31 -57 257 0 c227 0 270
-3 372 -23 303 -60 609 -198 833 -374 27 -21 53 -38 59 -38 16 0 3 234 -16
305 -24 87 -97 231 -156 302 -98 121 -248 219 -400 263 -74 21 -280 36 -340
24z m403 -550 c-8 -21 -43 -18 -43 5 0 11 6 21 13 24 17 6 37 -12 30 -29z"/>
<path d="M1810 1821 c-47 -5 -104 -11 -127 -15 -41 -7 -42 -9 -50 -54 -14 -82
-8 -281 11 -352 25 -95 97 -235 160 -311 102 -122 260 -223 418 -266 98 -27
309 -25 412 5 158 45 316 149 411 270 48 60 135 222 135 251 0 34 -221 194
-382 276 -168 87 -363 150 -548 179 -120 19 -329 27 -440 17z m3 -78 c-7 -17
-30 -17 -35 -1 -3 7 0 18 6 24 13 14 36 -5 29 -23z m847 -99 c0 -8 -4 -12 -10
-9 -5 3 -10 10 -10 16 0 5 5 9 10 9 6 0 10 -7 10 -16z m-507 -70 c-7 -18 -33
-18 -33 -1 0 19 10 27 25 20 8 -2 11 -11 8 -19z m301 -99 c-3 -8 -12 -11 -20
-8 -15 5 -18 16 -8 26 11 10 33 -4 28 -18z m-504 -5 c0 -5 -5 -10 -11 -10 -5
0 -7 5 -4 10 3 6 8 10 11 10 2 0 4 -4 4 -10z m-67 -57 c-7 -17 -30 -17 -35 -1
-3 7 0 18 6 24 13 14 36 -5 29 -23z m484 -9 c-9 -9 -28 6 -21 18 4 6 10 6 17
-1 6 -6 8 -13 4 -17z m177 18 c6 -10 -5 -26 -21 -29 -7 -2 -13 3 -13 10 0 24
23 36 34 19z m-139 -62 c3 -5 1 -10 -4 -10 -6 0 -11 5 -11 10 0 6 2 10 4 10 3
0 8 -4 11 -10z m-625 -10 c0 -5 -4 -10 -10 -10 -5 0 -10 5 -10 10 0 6 5 10 10
10 6 0 10 -4 10 -10z m265 0 c3 -6 -1 -13 -10 -16 -19 -8 -30 0 -20 15 8 14
22 14 30 1z m958 -26 c-6 -17 -30 -19 -35 -2 -3 7 0 18 6 24 14 15 37 -2 29
-22z m107 1 c0 -8 -4 -15 -9 -15 -13 0 -22 16 -14 24 11 11 23 6 23 -9z
m-1101 -76 c-18 -11 -22 -5 -14 22 7 20 8 21 17 4 8 -12 7 -20 -3 -26z m445 6
c-9 -22 -32 -25 -37 -5 -5 20 9 30 30 23 6 -3 9 -11 7 -18z m582 2 c2 -14 -1
-15 -17 -6 -11 5 -17 15 -13 20 9 14 27 6 30 -14z m-893 -74 c-7 -17 -43 -17
-43 0 0 7 5 18 11 24 14 14 39 -5 32 -24z m847 11 c0 -8 -6 -14 -14 -14 -18 0
-29 27 -13 33 16 6 27 -1 27 -19z m-150 -19 c0 -8 -4 -15 -9 -15 -13 0 -22 16
-14 24 11 11 23 6 23 -9z m-220 -10 c0 -8 -4 -15 -10 -15 -5 0 -10 7 -10 15 0
8 5 15 10 15 6 0 10 -7 10 -15z m300 -5 c0 -5 -4 -10 -10 -10 -5 0 -10 5 -10
10 0 6 5 10 10 10 6 0 10 -4 10 -10z m-170 -15 c0 -8 -4 -15 -9 -15 -5 0 -11
7 -15 15 -3 9 0 15 9 15 8 0 15 -7 15 -15z m97 -50 c0 -8 -6 -15 -13 -15 -6 0
-14 7 -18 15 -3 10 1 15 13 15 10 0 18 -7 18 -15z m-157 -21 c0 -8 -6 -14 -14
-14 -18 0 -29 27 -13 33 16 6 27 -1 27 -19z m150 -54 c0 -5 -4 -10 -10 -10 -5
0 -10 5 -10 10 0 6 5 10 10 10 6 0 10 -4 10 -10z"/>
</g>
</svg>
